<svg width="79" height="50" viewBox="0 0 79 50" fill="none" xmlns="http://www.w3.org/2000/svg">
<g clip-path="url(#clip0_45_307)">
<path d="M0 26.7827H2.63077V27.507H0.815385V30.2765H0V26.7827Z" fill="white"/>
<path d="M3.34872 26.7826H4.16924V27.3641C4.29632 27.1633 4.47269 26.9981 4.68173 26.8838C4.89077 26.7696 5.1256 26.7102 5.36411 26.7112C5.59304 26.7166 5.81842 26.7686 6.02638 26.864C6.23432 26.9594 6.42043 27.0961 6.57322 27.2657C6.72601 27.4354 6.84225 27.6344 6.91477 27.8504C6.98729 28.0664 7.01455 28.2949 6.99488 28.5219C7.01759 28.7512 6.99225 28.9828 6.92047 29.2019C6.84869 29.4211 6.73202 29.623 6.57783 29.7951C6.42364 29.9671 6.23527 30.1055 6.0246 30.2016C5.81394 30.2976 5.58555 30.3491 5.35385 30.3529C5.12132 30.3539 4.89203 30.2988 4.68568 30.1922C4.47934 30.0855 4.30211 29.9307 4.16924 29.7409V31.3373H3.34872V26.7826ZM6.16411 28.5372C6.17772 28.3953 6.16129 28.2521 6.11588 28.117C6.07047 27.9818 5.99708 27.8576 5.90045 27.7523C5.80382 27.6471 5.68609 27.5632 5.55485 27.506C5.4236 27.4487 5.28176 27.4195 5.13847 27.4202C4.99655 27.424 4.85687 27.4562 4.72776 27.5149C4.59866 27.5737 4.48277 27.6577 4.38704 27.7619C4.2913 27.8662 4.21768 27.9886 4.17057 28.1218C4.12345 28.255 4.10381 28.3963 4.11283 28.5372C4.10381 28.6781 4.12345 28.8194 4.17057 28.9526C4.21768 29.0857 4.2913 29.2081 4.38704 29.3124C4.48277 29.4167 4.59866 29.5007 4.72776 29.5594C4.85687 29.6181 4.99655 29.6503 5.13847 29.6542C5.28129 29.6547 5.42266 29.6256 5.55352 29.5687C5.68438 29.5118 5.80184 29.4284 5.8984 29.3237C5.99495 29.219 6.06846 29.0955 6.11421 28.9609C6.15997 28.8263 6.17696 28.6837 6.16411 28.5423V28.5372Z" fill="white"/>
<path d="M10.082 26.7827H10.9179L9.52308 30.3531C9.24103 31.0722 8.93333 31.3374 8.3641 31.3374C8.07205 31.3427 7.78433 31.2667 7.53333 31.1181L7.80513 30.5316C7.95014 30.6155 8.11431 30.6611 8.28205 30.6642C8.50769 30.6642 8.64615 30.5673 8.79487 30.2663L7.31795 26.7827H8.17949L9.1641 29.3789L10.082 26.7827Z" fill="white"/>
<path d="M11.6051 26.7827H14.8359V30.2765H14.0308V27.507H12.4154V30.2765H11.6051V26.7827Z" fill="white"/>
<path d="M15.841 26.7827H19.0718V30.2765H18.2667V27.507H16.6513V30.2765H15.841V26.7827Z" fill="white"/>
<path d="M19.841 29.2767C19.841 28.5219 20.441 28.1546 21.2974 28.1546C21.6177 28.1505 21.9365 28.1987 22.241 28.2974V28.2107C22.241 27.7007 21.9333 27.4508 21.3692 27.4508C21.0155 27.4499 20.6657 27.5247 20.3436 27.6701L20.1282 27.0427C20.5433 26.8481 20.9976 26.7504 21.4564 26.7571C21.6672 26.7395 21.8793 26.7652 22.0796 26.8328C22.2799 26.9004 22.464 27.0083 22.6205 27.1498C22.7532 27.2947 22.8552 27.4646 22.9204 27.6495C22.9856 27.8344 23.0127 28.0305 23 28.226V30.2968H22.2154V29.8429C22.0764 30.0089 21.9012 30.1412 21.703 30.2296C21.5048 30.318 21.2889 30.3602 21.0718 30.3529C20.9191 30.3669 20.7651 30.3498 20.6192 30.3025C20.4734 30.2553 20.3387 30.179 20.2235 30.0783C20.1083 29.9776 20.015 29.8545 19.9492 29.7167C19.8835 29.5789 19.8466 29.4292 19.841 29.2767ZM22.2564 29.0268V28.7871C22.0007 28.6921 21.7294 28.6454 21.4564 28.6494C20.9436 28.6494 20.6308 28.8636 20.6308 29.2308C20.6308 29.5675 20.9333 29.7409 21.3179 29.7409C21.8513 29.7715 22.2564 29.4655 22.2564 29.0268Z" fill="white"/>
<path d="M0.815385 34.3925H1.21026L2.32821 33.0103H3.31795L1.84616 34.7138L3.38462 36.5041H2.39487L1.22564 35.0861H0.815385V36.5041H0V33.0103H0.815385V34.3925Z" fill="white"/>
<path d="M3.58461 34.7752C3.58455 34.5319 3.63336 34.2911 3.72818 34.0669C3.82299 33.8426 3.96191 33.6395 4.13676 33.4694C4.3116 33.2993 4.51886 33.1656 4.74636 33.0763C4.97386 32.987 5.21701 32.9438 5.46153 32.9492C5.70464 32.9424 5.94666 32.9842 6.17321 33.0722C6.39975 33.1602 6.60622 33.2926 6.78033 33.4615C6.95444 33.6303 7.09266 33.8323 7.18678 34.0554C7.28089 34.2784 7.32899 34.518 7.3282 34.7599C7.3282 35.2536 7.131 35.7272 6.77997 36.0763C6.42894 36.4254 5.95284 36.6216 5.45641 36.6216C4.95998 36.6216 4.48388 36.4254 4.13285 36.0763C3.78182 35.7272 3.58461 35.2536 3.58461 34.7599V34.7752ZM6.52307 34.7752C6.52927 34.6302 6.50607 34.4855 6.45486 34.3497C6.40365 34.2138 6.32548 34.0896 6.22499 33.9844C6.1245 33.8792 6.00376 33.7952 5.86996 33.7374C5.73615 33.6796 5.59202 33.6492 5.44615 33.648C5.30208 33.6477 5.15949 33.6768 5.02714 33.7334C4.89479 33.79 4.77547 33.8729 4.67653 33.977C4.57758 34.0812 4.5011 34.2043 4.45178 34.339C4.40246 34.4736 4.38135 34.6168 4.38974 34.7599C4.38424 34.9038 4.40783 35.0473 4.4591 35.1819C4.51037 35.3165 4.58828 35.4396 4.68822 35.5437C4.78816 35.6479 4.90809 35.731 5.04092 35.7883C5.17376 35.8455 5.31678 35.8756 5.46153 35.8769C5.60533 35.8785 5.74792 35.8507 5.8805 35.7953C6.01308 35.7399 6.13282 35.6581 6.23232 35.5548C6.33182 35.4515 6.40896 35.3291 6.45897 35.195C6.50898 35.0609 6.5308 34.918 6.52307 34.7752Z" fill="white"/>
<path d="M8.13846 33.0103H8.98461L10.0615 34.6373L11.1385 33.0103H11.9744V36.5041H11.1846V34.1885L10.0615 35.8461L8.94359 34.1987V36.5041H8.13846V33.0103Z" fill="white"/>
<path d="M12.9743 33.0103H16.2051V36.5041H15.4V33.7294H13.7846V36.5041H12.9743V33.0103Z" fill="white"/>
<path d="M16.9897 35.4943C16.9897 34.7395 17.5897 34.3671 18.4462 34.3671C18.7668 34.364 19.0857 34.414 19.3897 34.515V34.4334C19.3897 33.9234 19.0872 33.6735 18.518 33.6735C18.1641 33.6713 17.814 33.7461 17.4923 33.8928L17.2718 33.2654C17.6869 33.0708 18.1412 32.9731 18.6 32.9798C18.8103 32.9636 19.0216 32.9895 19.2216 33.0561C19.4216 33.1227 19.6061 33.2286 19.7641 33.3674C19.8979 33.5125 20.0006 33.6833 20.0659 33.8692C20.1311 34.0551 20.1576 34.2523 20.1436 34.4487V36.5195H19.3692V36.0809C19.2303 36.2469 19.055 36.3792 18.8568 36.4676C18.6586 36.556 18.4427 36.5982 18.2256 36.5909C18.0708 36.6057 17.9146 36.5885 17.7668 36.5404C17.619 36.4923 17.4828 36.4143 17.3667 36.3113C17.2507 36.2083 17.1573 36.0826 17.0924 35.942C17.0275 35.8014 16.9926 35.649 16.9897 35.4943ZM19.4051 35.2444V35.0047C19.1489 34.9117 18.8779 34.8651 18.6051 34.867C18.0923 34.867 17.7846 35.0863 17.7846 35.4484C17.7846 35.7851 18.0821 35.9585 18.4667 35.9585C18.9846 35.9942 19.3897 35.6881 19.3897 35.2444H19.4051Z" fill="white"/>
<path d="M21.0923 33.0103H21.9026V34.3772H23.5231V33.0103H24.3282V36.5041H23.5231V35.1116H21.9026V36.5041H21.0923V33.0103Z" fill="white"/>
<path d="M25.3487 33.0103H26.1487V35.2443L27.8256 33.0103H28.5898V36.5041H27.7846V34.214L26.0769 36.5041H25.3487V33.0103Z" fill="white"/>
<path d="M29.5897 33.0104H30.3949V35.2444L32.0667 33.0104H32.8308V36.5042H32.0256V34.2141L30.3231 36.5042H29.5949L29.5897 33.0104ZM30.0615 31.623H30.6205C30.6657 31.7409 30.7457 31.8423 30.8501 31.9138C30.9545 31.9854 31.0783 32.0237 31.2051 32.0237C31.3319 32.0237 31.4557 31.9854 31.5601 31.9138C31.6645 31.8423 31.7446 31.7409 31.7897 31.623H32.3744C32.3297 31.8927 32.1903 32.1378 31.9808 32.3146C31.7713 32.4915 31.5055 32.5886 31.2308 32.5886C30.956 32.5886 30.6902 32.4915 30.4807 32.3146C30.2713 32.1378 30.1318 31.8927 30.0872 31.623H30.0615Z" fill="white"/>
<path d="M0 39.2328H0.815385V39.8142C0.941124 39.6119 1.11707 39.4451 1.32632 39.3299C1.53556 39.2146 1.77108 39.1549 2.01026 39.1563C2.24073 39.1603 2.46791 39.2115 2.67769 39.3065C2.88747 39.4015 3.07537 39.5384 3.22973 39.7087C3.3841 39.8789 3.50162 40.0789 3.57502 40.2963C3.64842 40.5136 3.67612 40.7436 3.65641 40.9721C3.67608 41.199 3.64882 41.4275 3.5763 41.6435C3.50378 41.8595 3.38755 42.0585 3.23476 42.2282C3.08196 42.3978 2.89586 42.5345 2.68791 42.6299C2.47996 42.7253 2.25457 42.7773 2.02564 42.7827C1.79139 42.7854 1.56003 42.731 1.35176 42.6243C1.14349 42.5176 0.964625 42.3619 0.830771 42.1707V43.7722H0V39.2328ZM2.82051 40.9822C2.83489 40.84 2.81904 40.6963 2.77397 40.5605C2.72891 40.4247 2.65564 40.2998 2.55893 40.194C2.46222 40.0882 2.34422 40.0038 2.21259 39.9463C2.08096 39.8888 1.93865 39.8594 1.79487 39.8601C1.65273 39.8646 1.51293 39.8975 1.3838 39.9568C1.25467 40.0161 1.13883 40.1005 1.04317 40.2052C0.947497 40.3099 0.873951 40.4326 0.826893 40.5661C0.779836 40.6996 0.760227 40.8411 0.769231 40.9822C0.76022 41.1232 0.779858 41.2644 0.826972 41.3976C0.874086 41.5308 0.94771 41.6532 1.04344 41.7575C1.13918 41.8617 1.25506 41.9457 1.38417 42.0045C1.51328 42.0632 1.65296 42.0954 1.79487 42.0993C1.93817 42.0999 2.08001 42.0707 2.21125 42.0135C2.34249 41.9562 2.46023 41.8723 2.55686 41.7671C2.65349 41.6618 2.72688 41.5376 2.77229 41.4024C2.8177 41.2673 2.83413 41.1241 2.82051 40.9822Z" fill="white"/>
<path d="M4.27693 40.9977C4.27693 40.5039 4.47413 40.0304 4.82516 39.6813C5.17619 39.3321 5.65229 39.136 6.14872 39.136C6.64515 39.136 7.12125 39.3321 7.47228 39.6813C7.82331 40.0304 8.02052 40.5039 8.02052 40.9977C8.01991 41.2409 7.97043 41.4816 7.87499 41.7056C7.77955 41.9296 7.64008 42.1324 7.46475 42.302C7.28942 42.4716 7.08178 42.6047 6.85402 42.6934C6.62626 42.7821 6.38298 42.8247 6.13846 42.8185C5.89491 42.8247 5.6526 42.7821 5.42596 42.6931C5.19933 42.6042 4.99302 42.4708 4.81931 42.3009C4.64561 42.131 4.50806 41.928 4.41488 41.7041C4.3217 41.4802 4.27478 41.24 4.27693 40.9977ZM7.21539 40.9977C7.22088 40.8531 7.19716 40.709 7.14563 40.5737C7.0941 40.4384 7.01582 40.3148 6.9154 40.2102C6.81499 40.1056 6.69449 40.022 6.56103 39.9646C6.42758 39.9071 6.28389 39.8768 6.13846 39.8756C5.99308 39.8706 5.8483 39.8965 5.71374 39.9515C5.57919 40.0065 5.45793 40.0893 5.35801 40.1944C5.2581 40.2996 5.18183 40.4247 5.13425 40.5614C5.08667 40.6981 5.06888 40.8434 5.08205 40.9875C5.07934 41.1296 5.10498 41.271 5.1575 41.4032C5.21002 41.5355 5.28837 41.6561 5.38804 41.7581C5.4877 41.86 5.60669 41.9413 5.73813 41.9973C5.86958 42.0533 6.01088 42.0827 6.15385 42.0841C6.29733 42.0894 6.44032 42.0647 6.57359 42.0115C6.70686 41.9584 6.82742 41.878 6.92749 41.7756C7.02755 41.6732 7.10488 41.551 7.15447 41.417C7.20407 41.283 7.22482 41.1402 7.21539 40.9977Z" fill="white"/>
<path d="M12.0872 42.0024H12.4872V43.6142H11.759V42.7369H9.07692V43.6142H8.34358V42.0228H8.74358L9.99486 39.2227H10.8359L12.0872 42.0024ZM9.55384 42.0024H11.2564L10.4154 40.0438L9.55384 42.0024Z" fill="white"/>
<path d="M13.1385 39.2329H13.9487V40.5998H15.5744V39.2329H16.3795V42.7216H15.5744V41.3343H13.9487V42.7216H13.1385V39.2329Z" fill="white"/>
<path d="M17.1436 41.7168C17.1436 40.967 17.7385 40.5947 18.6 40.5947C18.9206 40.592 19.2394 40.642 19.5436 40.7426V40.6559C19.5436 40.1458 19.2359 39.8959 18.6718 39.8959C18.3183 39.8923 17.9683 39.9654 17.6461 40.1101L17.4256 39.4828C17.8435 39.291 18.2988 39.1935 18.759 39.1971C18.9689 39.1802 19.1801 39.2063 19.3794 39.2739C19.5788 39.3415 19.7621 39.449 19.9179 39.5899C20.0516 39.7341 20.1543 39.9039 20.2195 40.089C20.2848 40.274 20.3113 40.4704 20.2974 40.6661V42.7369H19.5538V42.3033C19.4146 42.4691 19.2393 42.6011 19.0412 42.6895C18.843 42.7779 18.6273 42.8202 18.4102 42.8134C18.2529 42.8336 18.093 42.8204 17.9412 42.7746C17.7893 42.7289 17.6489 42.6517 17.5292 42.5481C17.4096 42.4445 17.3133 42.3168 17.2468 42.1735C17.1804 42.0302 17.1452 41.8746 17.1436 41.7168ZM19.5538 41.4668V41.2271C19.2992 41.1346 19.03 41.088 18.759 41.0894C18.2461 41.0894 17.9333 41.3087 17.9333 41.6709C17.9333 42.0075 18.2308 42.1809 18.6205 42.1809C19.1487 42.2115 19.5538 41.9106 19.5538 41.4668Z" fill="white"/>
<path d="M21.0513 42.7216L21.9949 41.4465C21.7595 41.3889 21.5508 41.2536 21.4027 41.0628C21.2546 40.872 21.1759 40.6368 21.1795 40.3958C21.1795 39.6256 21.7333 39.2329 22.6051 39.2329H24.2872V42.7216H23.4923V41.5332H22.8308L21.9744 42.7216H21.0513ZM22.641 39.8603C22.2256 39.8603 21.9692 40.0592 21.9692 40.3958C21.9692 40.7223 22.2103 40.9314 22.6359 40.9314H23.4923V39.8552L22.641 39.8603Z" fill="white"/>
<path d="M0 45.4503H0.815385V46.0318C0.94247 45.831 1.11884 45.6658 1.32788 45.5516C1.53692 45.4373 1.77175 45.3779 2.01026 45.3789C2.24003 45.3823 2.46664 45.4327 2.67603 45.5268C2.88542 45.621 3.07312 45.7569 3.22748 45.9262C3.38184 46.0955 3.49957 46.2946 3.57335 46.511C3.64714 46.7275 3.67541 46.9567 3.65641 47.1845C3.67608 47.4114 3.64882 47.6399 3.5763 47.856C3.50378 48.072 3.38755 48.271 3.23476 48.4406C3.08196 48.6103 2.89586 48.747 2.68791 48.8424C2.47996 48.9377 2.25457 48.9897 2.02564 48.9952C1.79077 48.9982 1.55879 48.9434 1.35034 48.8357C1.14188 48.728 0.963405 48.5708 0.830771 48.378V49.9795H0V45.4503ZM2.82051 47.2049C2.83413 47.063 2.8177 46.9199 2.77229 46.7847C2.72688 46.6495 2.65349 46.5253 2.55686 46.4201C2.46023 46.3148 2.34249 46.2309 2.21125 46.1737C2.08001 46.1165 1.93817 46.0872 1.79487 46.0879C1.65296 46.0917 1.51328 46.1239 1.38417 46.1827C1.25506 46.2414 1.13918 46.3254 1.04344 46.4297C0.94771 46.5339 0.874086 46.6563 0.826972 46.7895C0.779858 46.9227 0.76022 47.064 0.769231 47.2049C0.76022 47.3458 0.779858 47.4871 0.826972 47.6203C0.874086 47.7535 0.94771 47.8759 1.04344 47.9801C1.13918 48.0844 1.25506 48.1684 1.38417 48.2271C1.51328 48.2858 1.65296 48.3181 1.79487 48.3219C1.94009 48.3229 2.08385 48.2931 2.21665 48.2347C2.34946 48.1763 2.46827 48.0904 2.56522 47.9829C2.66218 47.8754 2.73508 47.7486 2.77909 47.611C2.8231 47.4733 2.83722 47.328 2.82051 47.1845V47.2049Z" fill="#C09A5D"/>
<path d="M4.27692 47.2101C4.26589 46.9777 4.30198 46.7455 4.38305 46.5273C4.46411 46.309 4.58849 46.1093 4.74878 45.9399C4.90907 45.7704 5.102 45.6348 5.31607 45.5411C5.53014 45.4474 5.76099 45.3974 5.99487 45.3943C7.10769 45.3943 7.67692 46.2665 7.67692 47.2713C7.67692 47.3427 7.67692 47.4192 7.67692 47.4957H5.11281C5.13505 47.7469 5.25435 47.9797 5.44563 48.1452C5.6369 48.3107 5.88525 48.396 6.13845 48.3832C6.31732 48.384 6.49434 48.3472 6.65786 48.2751C6.82138 48.203 6.96769 48.0973 7.08718 47.9649L7.55897 48.3832C7.31842 48.6696 6.99517 48.8757 6.63299 48.9733C6.27081 49.071 5.88719 49.0557 5.53409 48.9293C5.18098 48.803 4.87544 48.5718 4.65883 48.267C4.44222 47.9622 4.32501 47.5986 4.32307 47.2254L4.27692 47.2101ZM6.87692 46.955C6.88104 46.7151 6.7895 46.4833 6.62229 46.3103C6.45509 46.1373 6.22582 46.0372 5.98461 46.0318C5.74368 46.0422 5.51574 46.1433 5.34713 46.3148C5.17853 46.4863 5.08191 46.7152 5.07692 46.955H6.87692Z" fill="#C09A5D"/>
<path d="M10.5744 47.8171C10.3054 47.8922 10.028 47.9333 9.74872 47.9395C8.85128 47.9395 8.31795 47.5365 8.31795 46.6337V45.4504H9.11795V46.5623C9.11795 47.0316 9.3641 47.2101 9.86154 47.2101C10.1035 47.2084 10.3437 47.1706 10.5744 47.0979V45.4504H11.3795V48.9443H10.5744V47.8171Z" fill="#C09A5D"/>
<path d="M12.3744 45.4504H13.1795V46.5317H13.9949C14.8462 46.5317 15.3949 46.9653 15.3949 47.7201C15.3949 48.4546 14.8821 48.9392 13.9385 48.9392H12.3744V45.4504ZM13.9128 48.2812C14.3538 48.2812 14.5846 48.0925 14.5846 47.7355C14.5846 47.4141 14.359 47.1897 13.9231 47.1897H13.1744V48.2914L13.9128 48.2812Z" fill="#C09A5D"/>
<path d="M64.2513 0.331543H79V4.1008H68.4872V8.00777H77.6154V11.777H68.4872V15.8217H79V19.5961H64.2513V0.331543Z" fill="#C09A5D"/>
<path d="M29.4462 1.31037e-06C27.4651 0.00101123 25.5288 0.586343 23.8822 1.68196C22.2357 2.77758 20.9528 4.33427 20.1958 6.15513C19.4389 7.97599 19.2419 9.97923 19.6297 11.9115C20.0176 13.8437 20.9729 15.6181 22.3748 17.0103C23.7767 18.4025 25.5622 19.3499 27.5056 19.7327C29.4489 20.1155 31.4627 19.9165 33.2923 19.1608C35.1219 18.4051 36.6851 17.1268 37.7841 15.4875C38.8832 13.8481 39.4687 11.9214 39.4667 9.95104C39.4639 7.31004 38.4069 4.77821 36.5278 2.91217C34.6487 1.04614 32.1015 -0.00135235 29.4462 1.31037e-06ZM29.4462 15.6891C28.3076 15.6891 27.1945 15.3534 26.2477 14.7245C25.3009 14.0955 24.5627 13.2016 24.1265 12.1555C23.6904 11.1095 23.5757 9.95835 23.7971 8.84754C24.0185 7.73673 24.5659 6.71611 25.3703 5.91465C26.1747 5.11319 27.1999 4.56687 28.3164 4.34471C29.4328 4.12255 30.5904 4.23452 31.6429 4.66649C32.6954 5.09845 33.5955 5.83101 34.2296 6.77161C34.8636 7.7122 35.2031 8.81862 35.2051 9.95104C35.2072 10.7043 35.0596 11.4505 34.7711 12.1469C34.4825 12.8433 34.0585 13.4762 33.5235 14.0093C32.9885 14.5424 32.3529 14.9652 31.6532 15.2535C30.9535 15.5417 30.2035 15.6898 29.4462 15.6891Z" fill="white"/>
<path d="M16.759 19.6114L12.2256 12.9297C13.6147 12.3195 14.7503 11.2525 15.442 9.90797C16.1336 8.56341 16.3391 7.02314 16.024 5.54571C15.7088 4.06829 14.8923 2.74367 13.7113 1.79423C12.5304 0.844785 11.057 0.328329 9.53846 0.331558H0.00512695V19.5961H4.26667V13.5214H7.67692L13.3641 21.9117L16.759 19.6114ZM4.26667 4.15692H9.06667C9.80383 4.15692 10.5108 4.44817 11.0321 4.96661C11.5533 5.48504 11.8462 6.1882 11.8462 6.92138C11.8462 7.65456 11.5533 8.35771 11.0321 8.87615C10.5108 9.39458 9.80383 9.68584 9.06667 9.68584H4.26667V4.15692Z" fill="white"/>
<path d="M60.3179 19.6114L55.7846 12.9297C57.1736 12.3195 58.3093 11.2525 59.0009 9.90797C59.6926 8.56341 59.8981 7.02314 59.5829 5.54571C59.2678 4.06829 58.4512 2.74367 57.2703 1.79423C56.0893 0.844785 54.6159 0.328329 53.0974 0.331558H43.5641V19.5961H47.8256V13.5214H51.2359L56.9231 21.9117L60.3179 19.6114ZM47.8256 4.15692H52.6256C53.3628 4.15692 54.0698 4.44817 54.591 4.96661C55.1123 5.48504 55.4051 6.1882 55.4051 6.92138C55.4051 7.65456 55.1123 8.35771 54.591 8.87615C54.0698 9.39458 53.3628 9.68584 52.6256 9.68584H47.8256V4.15692Z" fill="#C09A5D"/>
</g>
<defs>
<clipPath id="clip0_45_307">
<rect width="79" height="50" fill="white"/>
</clipPath>
</defs>
</svg>
