<svg width="173" height="170" viewBox="0 0 173 170" fill="none" xmlns="http://www.w3.org/2000/svg">
<path d="M86.4999 0C69.3919 0 52.6681 4.98517 38.4432 14.3251C24.2184 23.665 13.1314 36.9401 6.58443 52.4718C0.0374527 68.0036 -1.6755 85.0943 1.66212 101.583C4.99974 118.071 13.238 133.217 25.3353 145.104C37.4325 156.992 52.8454 165.087 69.6247 168.367C86.4041 171.646 103.796 169.963 119.602 163.53C135.408 157.096 148.917 146.202 158.422 132.223C167.927 118.245 173 101.811 173 84.9999C172.989 62.4599 163.872 40.8464 147.652 24.9082C131.433 8.97006 109.438 0.0111281 86.4999 0ZM86.4999 133.841C76.6575 133.85 67.0338 130.989 58.8465 125.621C50.6593 120.252 44.2766 112.618 40.5061 103.684C36.7357 94.7503 35.7469 84.918 37.665 75.4316C39.5831 65.9453 44.3219 57.2313 51.2816 50.3923C58.2413 43.5533 67.109 38.8967 76.7628 37.0118C86.4165 35.127 96.4223 36.0986 105.514 39.8037C114.606 43.5088 122.374 49.7808 127.837 57.8261C133.3 65.8713 136.212 75.3281 136.203 84.9999C136.192 97.9501 130.952 110.367 121.633 119.524C112.314 128.681 99.6786 133.83 86.4999 133.841Z" fill="#C09A5D"/>
</svg>
