<svg width="799" height="224" viewBox="0 0 799 224" fill="none" xmlns="http://www.w3.org/2000/svg">
<path d="M649.833 3.36725H799V41.742H692.651V81.5745H785.028V120.011H692.651V161.24H799V199.655H649.833V3.36725Z" fill="white"/>
<path d="M297.802 0C277.765 0 258.177 5.95469 241.517 17.1111C224.857 28.2676 211.872 44.1247 204.204 62.6772C196.536 81.2298 194.53 101.644 198.439 121.34C202.348 141.035 211.997 159.126 226.165 173.326C240.334 187.525 258.385 197.195 278.037 201.113C297.689 205.03 318.059 203.02 336.571 195.335C355.083 187.65 370.905 174.637 382.037 157.94C393.169 141.243 399.111 121.613 399.111 101.532C399.111 74.6039 388.437 48.7789 369.438 29.738C350.439 10.697 324.67 0 297.802 0ZM297.802 159.905C286.282 159.905 275.021 156.481 265.442 150.067C255.864 143.653 248.399 134.537 243.99 123.87C239.582 113.204 238.428 101.467 240.676 90.1438C242.923 78.8205 248.47 68.4195 256.616 60.2558C264.762 52.0922 275.14 46.5327 286.439 44.2803C297.737 42.028 309.448 43.184 320.091 47.6021C330.734 52.0202 339.831 59.502 346.231 69.1015C352.631 78.7009 356.047 89.9867 356.047 101.532C356.047 117.013 349.91 131.861 338.987 142.808C328.064 153.755 313.249 159.905 297.802 159.905Z" fill="black"/>
<path d="M169.45 199.84L123.599 131.755C137.629 125.515 149.093 114.632 156.072 100.93C163.05 87.2277 165.118 71.5387 161.93 56.4905C158.742 41.4423 150.492 27.9488 138.561 18.2703C126.629 8.59171 111.742 3.31591 96.3922 3.32643H0V199.656H43.0231V137.628H77.503L135.215 223.103L169.45 199.84ZM43.0231 42.3581H91.5777C95.3342 42.2565 99.0729 42.9103 102.573 44.2808C106.073 45.6513 109.264 47.7108 111.957 50.3376C114.649 52.9645 116.79 56.1055 118.251 59.5751C119.713 63.0447 120.466 66.7725 120.466 70.5386C120.466 74.3047 119.713 78.0327 118.251 81.5023C116.79 84.9719 114.649 88.1129 111.957 90.7397C109.264 93.3666 106.073 95.426 102.573 96.7965C99.0729 98.167 95.3342 98.8208 91.5777 98.7191H43.0231V42.3581Z" fill="black"/>
<path d="M610.047 199.84L564.217 131.796C578.249 125.555 589.714 114.67 596.692 100.966C603.67 87.2619 605.737 71.5707 602.546 56.5213C599.355 41.4719 591.101 27.9784 579.167 18.3015C567.232 8.62455 552.341 3.35204 536.989 3.36728H440.597V199.696H483.62V137.628H518.1L575.69 223.103L610.047 199.84ZM483.682 42.358H532.257C536.013 42.2563 539.752 42.9101 543.252 44.2806C546.752 45.6511 549.943 47.7106 552.636 50.3374C555.329 52.9643 557.469 56.1053 558.931 59.5749C560.392 63.0445 561.145 66.7724 561.145 70.5385C561.145 74.3045 560.392 78.0325 558.931 81.5021C557.469 84.9717 555.329 88.1127 552.636 90.7395C549.943 93.3664 546.752 95.4258 543.252 96.7963C539.752 98.1668 536.013 98.8206 532.257 98.7189H483.682V42.358Z" fill="white"/>
</svg>
