<svg width="23" height="19" viewBox="0 0 23 19" fill="none" xmlns="http://www.w3.org/2000/svg">
<path d="M2.05405 7.78877C7.88382 5.24789 11.7714 3.57074 13.7169 2.75732C19.2717 0.447891 20.4264 0.0453708 21.1786 0.0327922C21.4548 0.0266876 21.7258 0.107666 21.9534 0.264242C22.1125 0.402626 22.2139 0.595614 22.2377 0.805121C22.278 1.06554 22.289 1.32967 22.2704 1.59254C21.9685 4.75481 20.6679 12.4303 20.0062 15.9724C19.727 17.4819 19.1735 17.985 18.6402 18.0227C17.4779 18.1284 16.5975 17.2554 15.4729 16.5133C13.7119 15.3586 12.7182 14.6416 11.01 13.5146C9.03518 12.2139 10.3157 11.502 11.4402 10.3297C11.7346 10.0227 16.8515 5.36864 16.9522 4.946C16.9654 4.88371 16.9639 4.81918 16.9478 4.75758C16.9316 4.69598 16.9012 4.63903 16.8591 4.59129C16.798 4.55238 16.7285 4.52846 16.6564 4.52146C16.5842 4.51447 16.5115 4.5246 16.444 4.55104C16.2679 4.59129 13.4561 6.44957 8.00877 10.1259C7.21045 10.6743 6.4876 10.941 5.84022 10.9259C5.12575 10.9108 3.75216 10.5234 2.73078 10.1913C1.47292 9.78374 0.481725 9.5699 0.569775 8.87808C0.611704 8.52923 1.10646 8.16613 2.05405 7.78877Z" fill="white"/>
</svg>
