<svg width="361" height="126" viewBox="0 0 361 126" fill="none" xmlns="http://www.w3.org/2000/svg">
<path d="M13.3656 2.06987V11.6576L39.0377 0.818359V11.4064L13.3656 22.4925L39.0377 34.4966V46.2496L13.3656 34.5832V45.0024H1.39359V2.06987H13.3656Z" fill="#010101"/>
<path d="M62.9732 2.06982V21.4098H75.7685V2.06982H87.7362V45.0023H75.7685V23.9128H62.9732V45.0023H51.0054V2.06982H62.9732Z" fill="#010101"/>
<path d="M128.845 2.06982H139.989L112.088 45.0023H100.943L128.845 2.06982ZM100.943 45.0023V2.06982H112.911L100.943 45.0023ZM139.989 45.0023H128.022L139.989 2.06982V45.0023Z" fill="#010101"/>
<path d="M169.872 0.818359C182.916 0.818359 188.774 6.15353 188.774 13.6583C188.774 16.577 188.113 18.8289 187.041 20.5784V42.7548C183.577 45.089 176.724 46.2539 170.035 46.2539C158.891 46.2539 151.464 42.586 151.545 33.1671C151.627 15.5767 177.218 22.4968 177.218 13.9094C177.218 10.6572 173.749 9.24117 169.456 9.24117C157.982 9.15889 154.431 16.6593 154.35 24.4975V3.15249C156.91 1.90531 162.111 0.818359 169.872 0.818359ZM170.035 37.8354C182.003 37.8354 187.041 29.1658 187.041 20.5784C181.261 29.8327 163.102 25.2467 163.102 33.5829C163.102 36.5839 166.24 37.8354 170.035 37.8354Z" fill="#010101"/>
<path d="M202.062 2.06982H238.381V45.0023H226.414V23.9128C221.131 29.3303 209.819 27.4985 209.819 34.332C209.819 36.0815 211.14 38.4156 215.351 38.4156C223.026 38.4156 226.328 31.2444 226.414 24.1597V23.9085C226.414 23.9908 226.414 24.0774 226.414 24.1597C226.246 41.7501 217.748 46.2495 210.398 46.2495C201.483 46.2495 197.851 40.6632 197.851 35.1634C197.851 17.2395 226.414 20.9075 226.414 13.4071V12.0733H202.062V2.06982Z" fill="#010101"/>
<path d="M13.3656 61.9044V104.837H1.39359V61.9044H13.3656ZM40.933 104.837H28.9652V83.414C28.9652 76.745 27.5631 72.0767 21.8644 72.0767C15.754 72.0767 13.4428 76.4938 13.3613 83.0805V83.1628C13.3613 83.1628 13.3613 83.1628 13.3613 83.0805C13.4428 69.7426 18.3139 60.6572 27.889 60.6572C38.1243 60.6572 40.933 68.5777 40.933 81.0798V104.837Z" fill="#010101"/>
<path d="M84.2715 63.5716V103.252C81.0512 105.088 73.8689 106.088 69.9068 106.088C58.9296 106.088 50.9197 103.503 50.9197 94.2488C50.9197 84.7434 64.4568 82.8293 73.9504 82.8293C64.2081 82.8293 52.7378 81.1621 52.7378 71.7433C52.7378 64.7409 58.0206 60.6572 69.7439 60.6572C76.5103 60.8218 81.3814 61.9867 84.2715 63.5716ZM63.8822 76.5761C63.8822 81.0798 68.3417 82.8293 77.5866 82.8293H77.668C65.7003 82.8293 62.1499 85.8304 62.1499 89.5806C62.1499 92.3304 64.2124 94.998 70.8159 94.998C77.9982 94.998 84.2715 91.0789 84.2715 83.1585C84.2715 75.6537 78.4099 71.6523 71.6434 71.6523C66.5236 71.6567 63.8822 73.6574 63.8822 76.5761Z" fill="#010101"/>
<path d="M108.953 61.9043V124.844H96.9854V61.9043H108.953ZM131.075 88.2467C131.075 75.0733 126.534 72.0723 120.012 72.0723C113.49 72.0723 108.949 76.4894 108.949 83.1583C108.949 69.8204 115.471 60.6484 125.625 60.6484C138.339 60.6484 142.382 70.2361 142.382 83.1583C142.382 93.4129 143.454 97.2454 147.665 97.2454L139.08 106.084C133.219 106.088 131.075 97.9167 131.075 88.2467Z" fill="#010101"/>
<path d="M187.783 61.9043V72.7435H167.064V78.9967H182.003V87.3329H167.064V94.0019H187.783V104.841H155.096V61.9086H187.783V61.9043Z" fill="#010101"/>
<path d="M200.162 61.9043H211.307V104.837H200.162V61.9043ZM230.045 104.837H217.992L211.307 61.9043H223.275L230.045 104.837ZM236.649 61.9043H246.966L240.362 104.837H230.045L236.649 61.9043ZM258.938 104.837H246.97V61.9043H258.938V104.837Z" fill="#010101"/>
<path d="M269.087 83.1627L298.31 80.6597C298.31 75.4891 293.936 71.4054 284.606 71.4054C275.609 71.4098 269.087 75.4934 269.087 83.1627C269.087 91.3344 281.883 94.9157 296.08 94.9157C304.583 94.9157 312.096 91.2478 312.096 82.1624C312.096 98.1679 302.023 106.088 290.386 106.088C279.653 106.088 269.087 98.1679 269.087 83.1627C269.087 68.5733 279.653 60.6528 290.386 60.6528C302.353 60.6528 312.096 68.9067 312.096 82.1624L269.087 83.1627Z" fill="#010101"/>
<path d="M333.969 61.9043V77.9921H348.415V61.9043H360.382V104.837H348.415V87.9955H333.969V104.837H322.001V61.9043H333.969Z" fill="#010101"/>
</svg>
